# xmcd
#
# Track frame offsets:
#	150
#	39141
#	81265
#	87626
#	123467
#	150838
#	164912
#	189268
#	201973
#	251759
#
# Disc length: 3664 seconds
#
# Revision: 1
# Processed by: cddbd v1.5.2PL0 Copyright (c) Steve Scherf et al.
# Submitted via: audiograbber 1.83.01
#
DISCID=7f0e4e0a
DTITLE=Grateful Dead - 82-09-15 Capital Centre, Landover MD
DYEAR=1900
DGENRE=
TTITLE0=Playing In The Band
TTITLE1=Crazy Fingers
TTITLE2=Playing In The Band Jam
TTITLE3=Little Red Rooster
TTITLE4=Dupree's Diamond Blues
TTITLE5=Beat It On Down The Line
TTITLE6=It Must Have Been The Roses
TTITLE7=Playing In The Band Jam
TTITLE8=Let It Grow
TTITLE9=Keep Your Day Job
EXTD=
EXTT0=
EXTT1=
EXTT2=
EXTT3=
EXTT4=
EXTT5=
EXTT6=
EXTT7=
EXTT8=
EXTT9=
PLAYORDER=
